<svg
  version="1.1"
  xmlns="http://www.w3.org/2000/svg"
  xmlns:xlink="http://www.w3.org/1999/xlink"
  viewBox="100 100 350 280"
>
  <g>
    <path
      d="M105.24908,304.36914c0,5.89199 3.75868,9.92157 9.7184,9.92157h17.70984v-4.94385h-16.79556c-2.06558,0 -3.62324,-1.35448 -3.62324,-3.72482v-1.04972h19.63997v-4.80841h-19.63997v-1.15131c0,-1.82855 1.18517,-3.08144 3.62324,-3.08144h16.79556v-4.94385h-17.7437c-5.92585,0 -9.68454,4.06344 -9.68454,9.92157z"
      fill="#7ae1bf"
      id="element-id-12084"
    ></path>
    <path
      d="M143.78406,304.19983h13.17233c4.23275,0 4.0973,5.14703 0,5.18089h-18.92887v4.90999h21.70555l-0.03386,-0.03386c4.77454,-0.40634 7.14489,-3.75868 7.21261,-7.14489c0.06772,-3.69096 -2.6751,-7.41578 -8.16075,-7.41578h-12.86757c-3.89413,0 -3.75868,-4.57137 0,-4.57137h19.36908v-4.53751h-22.3828l0.03386,0.03386c-4.40206,0.37248 -6.60309,3.45393 -6.67082,6.56923c-0.06772,3.42006 2.47193,6.97558 7.55123,7.00944z"
      fill="#7ae1bf"
      id="element-id-11795"
    ></path>
    <path
      d="M170.6705,290.5873v4.94385h9.92157v18.75956h6.80627v-18.75956h9.92157v-4.94385z"
      fill="#7ae1bf"
      id="element-id-43532"
    ></path>
    <path
      d="M197.25219,314.29072h7.41578c0,0 3.96186,-10.4295 6.53537,-16.25377c0.7111,-1.59151 1.52379,-1.99786 3.52165,-1.99786c1.99786,0 2.81055,0.40634 3.52165,1.99786c2.57351,5.82427 6.53537,16.25377 6.53537,16.25377h7.41578c0,0 -5.89199,-15.03474 -8.33006,-19.94473c-1.55765,-3.14917 -3.69096,-3.75868 -7.0433,-3.75868h-4.19889c-3.35234,0 -5.48565,0.60952 -7.0433,3.75868c-2.43807,4.90999 -8.33006,19.94473 -8.33006,19.94473z"
      fill="#7ae1bf"
      id="element-id-88551"
    ></path>
    <path
      d="M230.80945,290.5873v4.94385h9.92157v18.75956h6.80627v-18.75956h9.92157v-4.94385z"
      fill="#7ae1bf"
      id="element-id-58892"
    ></path>
    <path
      d="M261.65775,314.29072h7.00944v-23.70341h-7.00944zM264.40058,283.8149l-2.53965,5.31634h4.23275l4.87613,-5.31634z"
      fill="#7ae1bf"
      id="element-id-66695"
    ></path>
    <path
      d="M279.50304,304.19983h13.17233c4.23275,0 4.0973,5.14703 0,5.18089h-18.92887v4.90999h21.70555l-0.03386,-0.03386c4.77454,-0.40634 7.14489,-3.75868 7.21261,-7.14489c0.06772,-3.69096 -2.6751,-7.41578 -8.16075,-7.41578h-12.86757c-3.89413,0 -3.75868,-4.57137 0,-4.57137h19.36908v-4.53751h-22.3828l0.03386,0.03386c-4.40206,0.37248 -6.60309,3.45393 -6.67082,6.56923c-0.06772,3.42006 2.47193,6.97558 7.55123,7.00944z"
      fill="#7ae1bf"
      id="element-id-21118"
    ></path>
    <path
      d="M306.38948,290.5873v4.94385h9.92157v18.75956h6.80627v-18.75956h9.92157v-4.94385z"
      fill="#7ae1bf"
      id="element-id-54999"
    ></path>
    <path
      d="M337.23778,314.29072h7.00944v-23.70341h-7.00944z"
      fill="#7ae1bf"
      id="element-id-98710"
    ></path>
    <path
      d="M347.53184,300.54274v3.82641c0,6.0613 5.11317,9.92157 11.47922,9.92157h15.17019v-4.94385h-14.39136c-3.42006,0 -5.24861,-1.964 -5.24861,-4.97772v-3.86027c0,-2.81055 1.82855,-4.97772 5.24861,-4.97772h14.39136v-4.94385h-15.13632c-6.39992,0 -11.51309,4.06344 -11.51309,9.95543z"
      fill="#7ae1bf"
      id="element-id-38478"
    ></path>
    <path
      d="M376.99179,314.29072h7.41578c0,0 3.96186,-10.4295 6.53537,-16.25377c0.7111,-1.59151 1.52379,-1.99786 3.52165,-1.99786c1.99786,0 2.81055,0.40634 3.52165,1.99786c2.57351,5.82427 6.53537,16.25377 6.53537,16.25377h7.41578c0,0 -5.89199,-15.03474 -8.33006,-19.94473c-1.55765,-3.14917 -3.69096,-3.75868 -7.0433,-3.75868h-4.19889c-3.35234,0 -5.48565,0.60952 -7.0433,3.75868c-2.43807,4.90999 -8.33006,19.94473 -8.33006,19.94473z"
      fill="#7ae1bf"
      id="element-id-17952"
    ></path>
    <path
      d="M421.62194,304.19983h13.17233c4.23275,0 4.0973,5.14703 0,5.18089h-18.92887v4.90999h21.70555l-0.03386,-0.03386c4.77454,-0.40634 7.14489,-3.75868 7.21261,-7.14489c0.06772,-3.69096 -2.6751,-7.41578 -8.16075,-7.41578h-12.86757c-3.89413,0 -3.75868,-4.57137 0,-4.57137h19.36908v-4.53751h-22.3828l0.03386,0.03386c-4.40206,0.37248 -6.60309,3.45393 -6.67082,6.56923c-0.06772,3.42006 2.47193,6.97558 7.55123,7.00944z"
      fill="#7ae1bf"
      id="element-id-4612"
    ></path>
    <path
      d="M105.24908,354.38022h19.34966c8.75517,0 13.13275,-4.70866 13.13275,-11.25664v-3.2372c0,-6.54798 -4.37758,-11.25664 -13.13275,-11.25664h-19.34966zM112.60636,334.00054h10.18984c4.78223,0 7.3205,1.80253 7.3205,6.25369v2.46469c0,4.48794 -2.53826,6.29048 -7.3205,6.29048h-10.18984z"
      fill="#ffffff"
      id="element-id-95252"
    ></path>
    <path
      d="M140.9319,343.12358c0,6.54798 4.37758,11.25664 13.13275,11.25664h7.68836c8.75517,0 13.13275,-4.70866 13.13275,-11.25664v-3.2372c0,-6.54798 -4.37758,-11.25664 -13.13275,-11.25664h-7.68836c-8.75517,0 -13.13275,4.70866 -13.13275,11.25664zM155.68326,333.59589h4.41437c5.18688,0 7.17335,1.94968 7.17335,6.43762v2.94291c0,4.45116 -1.98647,6.43762 -7.17335,6.43762h-4.41437c-5.1501,0 -7.13656,-1.98647 -7.13656,-6.43762v-2.94291c0,-4.48794 1.98647,-6.43762 7.13656,-6.43762z"
      fill="#ffffff"
      id="element-id-24235"
    ></path>
    <path
      d="M197.73013,339.44493v4.15687c0,6.58477 5.55475,10.77842 12.4706,10.77842h16.48031v-5.37082h-15.63423c-3.71543,0 -5.70189,-2.13361 -5.70189,-5.4076v-4.19365c0,-3.05327 1.98647,-5.4076 5.70189,-5.4076h15.63423v-5.37082h-16.44353c-6.95263,0 -12.50738,4.41437 -12.50738,10.81521z"
      fill="#ffffff"
      id="element-id-15378"
    ></path>
    <path
      d="M229.73431,354.38022h8.05623c0,0 4.30401,-11.33022 7.09978,-17.65748c0.77251,-1.72896 1.65539,-2.1704 3.82579,-2.1704c2.1704,0 3.05327,0.44144 3.82579,2.1704c2.79577,6.32726 7.09978,17.65748 7.09978,17.65748h8.05623c0,0 -6.40084,-16.33317 -9.04946,-21.6672c-1.69218,-3.42114 -4.00972,-4.08329 -7.65157,-4.08329h-4.56152c-3.64186,0 -5.9594,0.66216 -7.65157,4.08329c-2.64862,5.33403 -9.04946,21.6672 -9.04946,21.6672z"
      fill="#ffffff"
      id="element-id-27740"
    ></path>
    <path
      d="M270.01544,328.62973l0.07357,25.75049h7.65157v-0.14715l-0.07357,-20.56361h10.63127c2.1704,0 3.34756,1.39788 3.34756,3.20042v0.58858c0,1.91289 -1.17717,3.20042 -3.34756,3.20042h-9.27018l13.75812,13.72133h8.35052l-8.71838,-8.71838c3.75221,-0.29429 6.62155,-2.68541 6.62155,-6.32726v-4.3408c0,-3.75221 -3.27399,-6.36405 -7.39407,-6.36405z"
      fill="#ffffff"
      id="element-id-46205"
    ></path>
    <path
      d="M303.19679,328.62973v5.37082h10.77842v20.37967h7.39407v-20.37967h10.77842v-5.37082z"
      fill="#ffffff"
      id="element-id-15891"
    ></path>
    <path
      d="M335.89991,343.12358c0,6.54798 4.37758,11.25664 13.13275,11.25664h7.68836c8.75517,0 13.13275,-4.70866 13.13275,-11.25664v-3.2372c0,-6.54798 -4.37758,-11.25664 -13.13275,-11.25664h-7.68836c-8.75517,0 -13.13275,4.70866 -13.13275,11.25664zM350.65127,333.59589h4.41437c5.18688,0 7.17335,1.94968 7.17335,6.43762v2.94291c0,4.45116 -1.98647,6.43762 -7.17335,6.43762h-4.41437c-5.1501,0 -7.13656,-1.98647 -7.13656,-6.43762v-2.94291c0,-4.48794 1.98647,-6.43762 7.13656,-6.43762z"
      fill="#ffffff"
      id="element-id-11759"
    ></path>
    <path
      d="M374.30493,343.6018c0,6.58477 5.55475,10.77842 12.4706,10.77842h16.48031v-5.37082h-15.63423c-3.71543,0 -5.70189,-2.13361 -5.70189,-5.4076v-14.97207h-7.61479z"
      fill="#ffffff"
      id="element-id-29852"
    ></path>
    <path
      d="M406.78734,354.38022h8.05623c0,0 4.30401,-11.33022 7.09978,-17.65748c0.77251,-1.72896 1.65539,-2.1704 3.82579,-2.1704c2.1704,0 3.05327,0.44144 3.82579,2.1704c2.79577,6.32726 7.09978,17.65748 7.09978,17.65748h8.05623c0,0 -6.40084,-16.33317 -9.04946,-21.6672c-1.69218,-3.42114 -4.00972,-4.08329 -7.65157,-4.08329h-4.56152c-3.64186,0 -5.9594,0.66216 -7.65157,4.08329c-2.64862,5.33403 -9.04946,21.6672 -9.04946,21.6672z"
      fill="#ffffff"
      id="element-id-51806"
    ></path>
  </g>
  <g>
    <path
      d="M247.30803,121.21077c-8.51199,3.601 -16.04898,8.68199 -22.61198,15.24498c-6.56333,6.56333 -11.64499,14.10098 -15.24498,22.61298c-3.728,8.81299 -5.59199,18.04398 -5.59199,27.69197c0,9.64699 1.864,18.87798 5.59199,27.69197c3.6,8.51099 8.68099,16.04798 15.24498,22.61198c6.56299,6.56299 14.09998,11.64499 22.61198,15.24498c8.81299,3.728 18.04398,5.59099 27.69197,5.59099c9.64799,0 18.87798,-1.864 27.69197,-5.59099c8.51099,-3.6 16.04898,-8.68199 22.61198,-15.24498c6.56333,-6.56333 11.64499,-14.10065 15.24498,-22.61198c3.728,-8.81399 5.59199,-18.04465 5.59199,-27.69197c0,-9.64799 -1.864,-18.87865 -5.59199,-27.69197c-3.6,-8.51199 -8.68199,-16.04898 -15.24498,-22.61298c-6.56299,-6.56299 -14.09998,-11.64399 -22.61198,-15.24498c-8.81332,-3.72733 -18.04398,-5.59099 -27.69197,-5.59099c-9.64799,0 -18.87898,1.864 -27.69197,5.59099zM249.44003,247.26964c-7.85599,-3.323 -14.81498,-8.01499 -20.87498,-14.07498c-6.05999,-6.05999 -10.75132,-13.01799 -14.07398,-20.87398c-3.44,-8.13199 -5.15999,-16.65198 -5.15999,-25.55997c0,-8.90799 1.72,-17.42798 5.15999,-25.56097c3.323,-7.85599 8.01399,-14.81398 14.07398,-20.87398c6.05999,-6.05999 13.01799,-10.75199 20.87498,-14.07398c8.13199,-3.44 16.65198,-5.15999 25.55997,-5.15999c8.90799,0 17.42798,1.72 25.55997,5.15999c7.85599,3.322 14.81398,8.01399 20.87498,14.07398c6.05999,6.05999 10.75099,13.01799 14.07398,20.87398c3.44,8.13299 5.15999,16.65298 5.15999,25.56097c0,8.90699 -1.72,17.42798 -5.15999,25.55997c-3.323,7.85599 -8.01399,14.81398 -14.07398,20.87398c-6.06099,6.05999 -13.01899,10.75199 -20.87498,14.07498c-8.13199,3.439 -16.65198,5.15899 -25.55997,5.15899c-8.90799,0 -17.42798,-1.72 -25.55997,-5.15899z"
      fill="#7ae1bf"
      id="element-id-36939"
    ></path>
    <path
      d="M260.37102,243.16864c9.45399,2.521 19.53798,2.647 29.24397,0.378v-113.57288c-8.82299,-2.269 -20.54598,-2.143 -29.24397,0.378v7.43699l5.29399,-1.386v100.58989c-2.016,-0.379 -3.907,-0.883 -5.29399,-1.387zM272.85,135.51976c5.54699,0 7.18499,0.126 9.57999,0.378v101.59889c-3.403,0.504 -4.78999,0.504 -9.57999,0.378z"
      fill="#ffffff"
      id="element-id-43915"
    ></path>
    <path
      d="M254.52202,165.51073l-0.129,-33.84396c-23.25097,9.81799 -37.33196,30.48597 -37.33196,55.15794c0,24.41397 13.82198,45.21095 37.33196,55.02894l0.129,-51.02394h-7.49199v39.13996c-16.79298,-11.75499 -22.60598,-27.12697 -22.34698,-47.92395h15.62998v-7.36299h-14.46798c2.584,-11.88399 10.97999,-23.89797 21.18498,-31.00197v21.82998z"
      fill="#ffffff"
      id="element-id-42990"
    ></path>
    <path
      d="M329.18994,166.16473c-6.95099,-16.60498 -16.99198,-27.54697 -33.72596,-34.49796l0.129,110.18688c7.72299,-3.347 14.28798,-7.33699 19.82298,-12.74399c10.81299,-10.94099 16.47698,-24.32797 17.37798,-38.61596h-7.46599c-1.159,15.96098 -9.26799,30.12097 -22.39798,39.38896v-86.11591c8.10999,5.66399 14.28798,13.25899 18.40698,22.39798z"
      fill="#ffffff"
      id="element-id-53779"
    ></path>
  </g>
</svg>
