<svg
  version="1.1"
  xmlns="http://www.w3.org/2000/svg"
  xmlns:xlink="http://www.w3.org/1999/xlink"
  viewBox="200 112 150 150"
>
  <g>
    <path
      d="M247.30803,121.21077c-8.51199,3.601 -16.04898,8.68199 -22.61198,15.24498c-6.56333,6.56333 -11.64499,14.10098 -15.24498,22.61298c-3.728,8.81299 -5.59199,18.04398 -5.59199,27.69197c0,9.64699 1.864,18.87798 5.59199,27.69197c3.6,8.51099 8.68099,16.04798 15.24498,22.61198c6.56299,6.56299 14.09998,11.64499 22.61198,15.24498c8.81299,3.728 18.04398,5.59099 27.69197,5.59099c9.64799,0 18.87798,-1.864 27.69197,-5.59099c8.51099,-3.6 16.04898,-8.68199 22.61198,-15.24498c6.56333,-6.56333 11.64499,-14.10065 15.24498,-22.61198c3.728,-8.81399 5.59199,-18.04465 5.59199,-27.69197c0,-9.64799 -1.864,-18.87865 -5.59199,-27.69197c-3.6,-8.51199 -8.68199,-16.04898 -15.24498,-22.61298c-6.56299,-6.56299 -14.09998,-11.64399 -22.61198,-15.24498c-8.81332,-3.72733 -18.04398,-5.59099 -27.69197,-5.59099c-9.64799,0 -18.87898,1.864 -27.69197,5.59099zM249.44003,247.26964c-7.85599,-3.323 -14.81498,-8.01499 -20.87498,-14.07498c-6.05999,-6.05999 -10.75132,-13.01799 -14.07398,-20.87398c-3.44,-8.13199 -5.15999,-16.65198 -5.15999,-25.55997c0,-8.90799 1.72,-17.42798 5.15999,-25.56097c3.323,-7.85599 8.01399,-14.81398 14.07398,-20.87398c6.05999,-6.05999 13.01799,-10.75199 20.87498,-14.07398c8.13199,-3.44 16.65198,-5.15999 25.55997,-5.15999c8.90799,0 17.42798,1.72 25.55997,5.15999c7.85599,3.322 14.81398,8.01399 20.87498,14.07398c6.05999,6.05999 10.75099,13.01799 14.07398,20.87398c3.44,8.13299 5.15999,16.65298 5.15999,25.56097c0,8.90699 -1.72,17.42798 -5.15999,25.55997c-3.323,7.85599 -8.01399,14.81398 -14.07398,20.87398c-6.06099,6.05999 -13.01899,10.75199 -20.87498,14.07498c-8.13199,3.439 -16.65198,5.15899 -25.55997,5.15899c-8.90799,0 -17.42798,-1.72 -25.55997,-5.15899z"
      fill="#7ae1bf"
      id="element-id-36939"
    ></path>
    <path
      d="M260.37102,243.16864c9.45399,2.521 19.53798,2.647 29.24397,0.378v-113.57288c-8.82299,-2.269 -20.54598,-2.143 -29.24397,0.378v7.43699l5.29399,-1.386v100.58989c-2.016,-0.379 -3.907,-0.883 -5.29399,-1.387zM272.85,135.51976c5.54699,0 7.18499,0.126 9.57999,0.378v101.59889c-3.403,0.504 -4.78999,0.504 -9.57999,0.378z"
      fill="#ffffff"
      id="element-id-43915"
    ></path>
    <path
      d="M254.52202,165.51073l-0.129,-33.84396c-23.25097,9.81799 -37.33196,30.48597 -37.33196,55.15794c0,24.41397 13.82198,45.21095 37.33196,55.02894l0.129,-51.02394h-7.49199v39.13996c-16.79298,-11.75499 -22.60598,-27.12697 -22.34698,-47.92395h15.62998v-7.36299h-14.46798c2.584,-11.88399 10.97999,-23.89797 21.18498,-31.00197v21.82998z"
      fill="#ffffff"
      id="element-id-42990"
    ></path>
    <path
      d="M329.18994,166.16473c-6.95099,-16.60498 -16.99198,-27.54697 -33.72596,-34.49796l0.129,110.18688c7.72299,-3.347 14.28798,-7.33699 19.82298,-12.74399c10.81299,-10.94099 16.47698,-24.32797 17.37798,-38.61596h-7.46599c-1.159,15.96098 -9.26799,30.12097 -22.39798,39.38896v-86.11591c8.10999,5.66399 14.28798,13.25899 18.40698,22.39798z"
      fill="#ffffff"
      id="element-id-53779"
    ></path>
  </g>
</svg>
